<?xml version="1.0" standalone="no"?>
<!DOCTYPE svg PUBLIC "-//W3C//DTD SVG 20010904//EN"
 "http://www.w3.org/TR/2001/REC-SVG-20010904/DTD/svg10.dtd">
<svg version="1.0" xmlns="http://www.w3.org/2000/svg"
 width="1500.000000pt" height="1500.000000pt" viewBox="0 0 1500.000000 1500.000000"
 preserveAspectRatio="xMidYMid meet">

<g transform="translate(0.000000,1500.000000) scale(0.100000,-0.100000)"
fill="#000000" stroke="none">
<path d="M3445 5450 c-142 -19 -333 -87 -480 -171 -311 -178 -535 -446 -430
-515 58 -38 174 -24 302 36 150 70 343 219 343 266 0 11 -26 -8 -74 -54 -130
-124 -291 -201 -416 -202 -81 0 -110 17 -110 64 0 59 71 146 205 250 135 105
262 174 414 225 144 49 307 65 420 40 103 -22 170 -100 157 -183 -13 -82 -55
-146 -170 -261 -116 -116 -198 -176 -331 -243 -137 -68 -137 -78 -3 170 105
195 186 347 196 371 6 13 -33 8 -55 -8 -11 -8 -94 -149 -184 -314 l-164 -300
-45 -10 c-25 -6 -66 -13 -92 -17 -47 -6 -61 -17 -35 -27 8 -3 44 0 80 7 37 7
67 11 67 9 0 -2 -43 -82 -95 -177 -52 -96 -95 -178 -95 -183 0 -16 47 -3 67
19 10 11 61 97 113 192 l96 171 70 -1 c79 -2 148 -29 227 -89 70 -54 146 -188
178 -314 13 -54 29 -38 22 23 -9 83 -26 143 -61 210 -63 122 -159 198 -269
215 l-48 7 101 53 c205 107 400 284 470 426 87 177 22 288 -186 315 -85 11
-101 11 -185 0z"/>
<path d="M6611 5395 c-69 -20 -143 -57 -204 -103 -95 -72 -237 -270 -367 -512
-94 -176 -140 -254 -216 -372 l-62 -96 -69 -6 c-37 -3 -105 -10 -150 -14 -46
-4 -83 -7 -83 -6 0 1 25 18 56 38 81 54 59 55 -33 3 -74 -43 -158 -77 -188
-77 -26 0 -26 20 1 70 15 28 24 53 21 56 -4 4 -30 -11 -59 -33 -86 -65 -101
-73 -135 -73 -38 0 -47 11 -38 51 14 62 173 189 238 189 34 0 45 -24 23 -49
-17 -19 -21 -41 -8 -41 18 0 72 64 72 85 0 81 -144 46 -293 -70 -66 -52 -105
-107 -114 -159 -12 -72 43 -84 147 -31 27 14 52 25 55 25 3 0 5 -12 5 -27 0
-23 -8 -32 -40 -47 -52 -25 -117 -81 -135 -117 -21 -40 -18 -74 9 -106 24 -28
25 -28 143 -28 106 1 127 4 205 31 110 39 216 105 311 194 l75 70 255 0 c240
-1 255 -2 260 -20 7 -27 68 -41 131 -29 55 10 152 52 227 99 l47 29 -5 -40
c-11 -76 41 -88 147 -34 57 29 61 30 54 11 -3 -8 0 -24 6 -36 10 -19 18 -22
53 -17 22 3 79 25 126 49 47 24 89 44 92 46 3 1 6 -12 6 -29 0 -84 113 -76
290 21 40 22 73 38 73 35 0 -3 -13 -32 -30 -65 -33 -65 -38 -100 -15 -100 8 0
70 48 137 106 68 58 137 115 153 127 l30 22 -20 -30 c-105 -159 -79 -221 68
-161 61 25 227 126 227 138 0 3 -52 -20 -115 -53 -208 -107 -227 -78 -80 125
19 26 32 52 29 57 -17 29 -60 2 -250 -158 -137 -116 -140 -114 -55 37 54 96
75 121 248 295 223 224 297 326 278 386 -23 71 -136 -12 -279 -203 l-58 -78
-94 0 c-52 0 -94 3 -94 6 0 3 15 24 34 46 44 51 66 97 66 137 0 24 -4 31 -19
31 -29 0 -100 -60 -170 -144 -35 -42 -71 -77 -80 -77 -9 -1 -65 -4 -126 -8
-94 -5 -110 -9 -113 -23 -3 -16 7 -18 102 -18 58 0 106 -2 106 -4 0 -2 -37
-59 -83 -127 -45 -68 -97 -154 -114 -190 -32 -65 -33 -66 -120 -107 -93 -44
-143 -53 -143 -26 0 8 12 36 26 60 31 52 25 67 -14 36 -79 -64 -117 -85 -158
-90 -43 -4 -44 -4 -44 23 0 53 71 134 170 194 37 22 94 28 105 11 4 -6 -3 -26
-15 -45 -30 -48 -3 -48 39 0 36 42 39 70 10 86 -54 29 -197 -34 -307 -136
-168 -155 -437 -235 -408 -121 3 14 35 43 83 77 l78 54 -40 3 c-62 4 -85 11
-85 27 0 40 139 135 197 135 36 0 42 -14 16 -42 -27 -30 -7 -32 42 -4 35 21
45 33 45 53 0 26 0 26 -68 21 -55 -4 -84 -13 -148 -47 -80 -41 -141 -92 -144
-121 -5 -32 2 -40 43 -51 l42 -11 -25 -17 c-13 -9 -37 -27 -53 -40 -28 -24
-33 -24 -196 -23 -91 1 -200 5 -243 8 l-76 6 33 47 c52 72 132 208 262 442
238 428 327 530 502 575 111 28 221 -2 221 -60 0 -20 -6 -24 -49 -30 -75 -10
-182 -68 -236 -128 -39 -44 -46 -57 -43 -87 3 -36 3 -36 56 -39 40 -2 66 3
107 22 68 31 156 112 180 167 19 40 19 41 61 34 32 -4 43 -2 47 9 7 18 -20 36
-55 36 -18 0 -26 8 -33 32 -16 51 -53 71 -142 75 -49 2 -98 -3 -132 -12z m213
-177 c-36 -70 -165 -168 -221 -168 -35 0 -47 24 -29 58 13 26 64 73 104 96 27
16 118 45 140 46 22 0 22 -1 6 -32z m1267 -219 c-5 -38 -39 -99 -92 -164 -59
-75 -279 -291 -254 -250 94 152 96 154 127 157 35 3 52 28 19 28 -12 0 -21 2
-21 5 0 17 174 241 193 249 22 8 32 -1 28 -25z m-419 -90 c-2 -13 -20 -49 -40
-79 -34 -51 -41 -55 -80 -58 -23 -2 -42 1 -42 6 0 15 142 163 154 159 6 -2 10
-15 8 -28z m101 -192 c-4 -7 -48 -80 -97 -162 -49 -83 -94 -159 -101 -170 -7
-11 -60 -45 -118 -75 -82 -41 -117 -54 -153 -54 -65 -1 -73 15 -46 94 11 34
40 96 64 137 35 62 57 87 118 133 42 32 82 65 90 75 23 28 49 34 153 34 77 1
96 -2 90 -12z m-247 -5 c-7 -13 -126 -104 -126 -98 0 4 15 29 33 56 28 43 37
50 65 50 18 0 31 -4 28 -8z m-1902 -551 c-133 -126 -277 -190 -437 -193 -64 0
-84 3 -105 19 -77 57 4 151 173 202 99 30 233 49 350 50 l100 0 -81 -78z"/>
<path d="M9519 5350 c-226 -35 -483 -210 -572 -390 -29 -59 -30 -149 -3 -179
78 -86 327 2 524 184 62 57 121 140 108 152 -3 4 -30 -18 -59 -49 -111 -116
-305 -238 -409 -257 -63 -11 -94 -4 -118 27 -93 118 159 380 454 471 81 25
228 29 280 7 131 -54 95 -188 -148 -550 -150 -224 -208 -338 -214 -417 -4 -47
-1 -60 16 -77 47 -47 158 -34 292 33 66 33 70 34 70 15 0 -37 28 -77 61 -89
181 -63 430 131 717 560 63 93 192 332 192 353 0 29 -24 16 -59 -30 -19 -25
-63 -66 -98 -91 -35 -24 -63 -49 -63 -54 0 -22 33 -20 70 5 22 14 40 23 40 18
0 -16 -105 -191 -176 -292 -130 -186 -292 -349 -409 -412 -46 -25 -72 -32
-114 -32 -48 0 -56 3 -82 32 -41 46 -39 82 9 118 70 53 204 189 275 279 115
147 158 264 105 284 -38 14 -78 -8 -153 -83 -127 -127 -256 -321 -297 -447
-19 -61 -27 -72 -63 -93 -54 -32 -156 -66 -198 -66 -112 0 -70 140 140 461
144 220 223 385 223 467 0 50 -31 94 -84 117 -59 27 -173 37 -257 25z m664
-434 c15 -39 -39 -138 -153 -279 -70 -88 -222 -226 -228 -209 -10 32 50 159
136 288 102 152 225 252 245 200z"/>
<path d="M11300 5078 c-157 -79 -451 -467 -525 -697 -17 -51 -19 -52 -99 -91
-81 -39 -129 -50 -141 -30 -3 5 6 32 22 59 15 28 25 53 21 56 -4 4 -36 -16
-73 -44 -69 -53 -97 -65 -136 -59 -99 14 109 238 221 238 23 0 30 -5 30 -19 0
-10 -7 -24 -15 -31 -16 -14 -20 -40 -6 -40 5 0 23 13 40 29 34 32 41 71 16 91
-60 49 -311 -94 -369 -212 -47 -95 -30 -129 57 -109 29 6 67 20 85 31 18 11
34 20 37 20 2 0 5 -15 7 -32 3 -28 7 -34 32 -36 35 -4 102 20 179 64 32 19 60
34 61 34 2 0 7 -15 10 -34 15 -82 84 -85 224 -11 46 25 86 45 88 45 2 0 4 -13
4 -30 0 -17 9 -39 20 -50 45 -45 140 -13 330 109 18 11 14 5 -11 -20 -43 -43
-52 -70 -33 -97 37 -53 162 -29 324 63 l62 35 -7 -29 c-8 -39 22 -71 68 -71
71 0 227 70 335 152 l54 40 34 -33 34 -33 -58 -21 c-70 -26 -128 -60 -136 -81
-26 -68 32 -91 142 -59 71 22 122 71 122 119 0 46 -12 70 -58 118 l-36 38 26
27 c55 60 88 115 77 129 -9 11 -17 11 -47 -2 -74 -31 -129 -108 -117 -163 5
-22 -1 -31 -36 -58 -63 -49 -220 -124 -270 -130 -88 -10 -89 37 -7 199 46 90
59 105 122 155 39 31 86 70 104 87 l32 30 167 8 c150 7 199 16 181 34 -4 3
-73 5 -154 5 l-147 -2 36 40 c70 77 103 181 58 181 -29 0 -108 -67 -176 -148
-32 -40 -66 -73 -75 -73 -8 -1 -64 -4 -125 -8 -94 -5 -110 -9 -113 -23 -3 -16
7 -18 103 -18 59 0 105 -3 103 -7 -1 -5 -40 -63 -85 -130 -45 -67 -96 -151
-113 -186 l-32 -65 -100 -47 c-123 -58 -209 -71 -228 -36 -15 30 4 59 67 102
92 62 93 63 32 69 -46 4 -54 8 -57 26 -4 25 54 78 121 112 73 37 131 25 85
-17 -12 -12 -18 -24 -14 -28 8 -9 69 23 92 48 57 63 -75 67 -198 7 -91 -46
-161 -107 -156 -139 3 -24 18 -35 63 -44 26 -6 27 -8 12 -16 -9 -6 -21 -7 -27
-4 -5 3 -28 -6 -51 -21 -71 -44 -182 -94 -211 -94 -30 0 -58 32 -58 66 0 14
57 78 173 195 235 236 397 456 397 539 0 143 -259 -61 -458 -360 -67 -100
-159 -279 -168 -325 -5 -29 -14 -37 -94 -74 -102 -49 -138 -51 -158 -8 -20 41
-6 65 78 138 149 130 384 408 451 535 22 43 29 69 27 98 -4 51 -24 56 -88 24z
m34 -44 c26 -69 -131 -295 -363 -522 -69 -68 -127 -119 -129 -113 -6 18 60
161 122 264 152 254 342 444 370 371z m316 -19 c0 -48 -38 -121 -123 -235 -69
-92 -294 -332 -350 -372 l-27 -20 25 69 c89 235 361 592 453 593 19 0 22 -5
22 -35z m597 -110 c-3 -20 -22 -58 -42 -85 -33 -45 -40 -50 -76 -50 -21 0 -39
3 -39 6 0 9 66 90 108 131 43 43 56 43 49 -2z m-162 -211 c-72 -60 -105 -85
-105 -80 0 4 15 29 33 56 28 44 36 50 67 49 l35 0 -30 -25z m245 -123 c0 -5
-19 -33 -41 -61 -31 -40 -43 -49 -50 -39 -16 26 -9 47 26 78 35 30 65 40 65
22z m-30 -295 c0 -25 -7 -40 -25 -54 -51 -41 -135 -36 -135 8 0 31 81 77 138
79 19 1 22 -4 22 -33z"/>
<path d="M5263 5054 c-76 -37 -240 -239 -343 -421 -32 -57 -59 -93 -69 -93
-50 0 -244 -129 -271 -179 -5 -11 -57 -43 -115 -71 -146 -72 -245 -80 -245
-21 0 20 46 65 115 112 l50 34 -50 3 c-47 3 -75 15 -75 32 0 16 71 75 122 103
79 42 135 33 91 -15 -9 -10 -13 -21 -9 -25 10 -11 76 28 94 55 22 34 4 45 -66
40 -113 -8 -292 -119 -292 -180 0 -26 16 -38 50 -38 35 0 29 -17 -20 -53 -54
-41 -84 -88 -75 -117 9 -28 66 -41 129 -29 39 7 166 62 247 106 3 2 3 -13 1
-34 -5 -42 14 -63 58 -63 31 0 108 39 161 81 l37 29 7 -45 c9 -61 40 -83 93
-67 44 13 80 37 70 47 -3 4 -22 1 -42 -6 -49 -18 -66 -2 -66 63 0 63 8 77 94
168 127 134 310 375 367 486 24 44 30 67 25 87 -7 31 -26 34 -73 11z m17 -57
c0 -35 -51 -130 -122 -228 -76 -105 -269 -332 -276 -325 -9 10 107 232 177
338 71 108 186 238 209 238 6 0 12 -11 12 -23z m-455 -573 c-26 -69 -43 -90
-129 -155 -42 -31 -83 -38 -92 -15 -10 26 26 83 91 145 53 51 142 108 152 97
2 -2 -8 -34 -22 -72z"/>
<path d="M8595 4661 c-41 -25 -82 -70 -94 -104 -9 -24 -8 -31 12 -51 13 -13
30 -26 38 -29 10 -4 -3 -22 -46 -62 -79 -75 -278 -176 -357 -183 -41 -3 -57 0
-67 12 -25 30 -4 63 77 118 l77 53 -40 3 c-62 4 -85 11 -85 27 0 40 139 135
197 135 36 0 42 -14 16 -42 -23 -25 -11 -32 25 -14 42 22 62 44 62 68 0 19 -4
20 -68 16 -78 -6 -174 -47 -242 -105 -72 -62 -75 -96 -9 -113 l40 -11 -50 -39
c-99 -78 -110 -134 -30 -154 92 -21 336 94 474 225 55 52 63 56 98 52 20 -3
37 -8 37 -12 0 -4 -27 -32 -59 -63 -69 -64 -93 -107 -89 -151 3 -27 8 -33 32
-35 16 -2 50 4 75 14 82 30 279 154 246 154 -4 0 -33 -16 -65 -35 -116 -70
-209 -101 -225 -75 -16 25 10 77 67 133 67 68 72 94 21 111 l-33 11 20 30 c65
97 30 169 -55 116z m55 -55 c0 -32 -37 -86 -59 -86 -10 0 -29 8 -41 18 -21 17
-22 20 -7 49 19 36 75 67 94 51 7 -6 13 -20 13 -32z"/>
<path d="M4005 4456 c-106 -108 -167 -160 -218 -181 -34 -14 -38 -14 -44 1 -7
19 9 49 90 162 32 46 57 85 55 86 -1 2 -12 6 -24 10 -17 5 -29 -5 -65 -56 -81
-114 -130 -202 -127 -228 3 -21 9 -26 39 -28 29 -2 50 6 110 47 41 27 85 61
98 75 41 43 43 29 5 -28 -24 -37 -35 -63 -32 -83 5 -45 54 -43 156 6 86 42
207 119 199 128 -3 2 -40 -16 -84 -41 -91 -52 -172 -82 -197 -73 -15 6 -15 9
-2 35 8 15 51 79 95 140 45 62 81 115 81 117 0 3 -10 5 -22 4 -15 0 -54 -33
-113 -93z"/>
</g>
</svg>
